
<svg width="100" height="100" viewBox="0 -14 50 50" fill="none" xmlns="http://www.w3.org/2000/svg">
<g>
	<circle id="XMLID_3_" cx="387" cy="125" r="256"/>
	<path id="XMLID_4_" class="st0" d="M436.3,71l-135-73.5c-7.4,0-13,5.6-13,13v230.9c0,7.4,5.6,13,13,13c0,0,73.5-41,135-73.5V71z" fill="white"/>
	<path id="XMLID_5_" class="st1" d="M463.3,85.9l51.2,27.9c23.3,12.1,0,23.3,0,23.3L301.4,253.5h-0.9L463.3,85.9z" fill="white"/>
	<path id="XMLID_6_" class="st1" d="M301.4-2.5l213.2,116.4c23.3,12.1,0,23.3,0,23.3s-21.4,11.2-51.2,27L301.4-2.5z" fill="white"/>
	<path id="XMLID_7_" class="st0" d="M464.3,85.9l51.2,27.9c23.3,12.1,0,23.3,0,23.3s-21.4,11.2-51.2,27L426.1,125L464.3,85.9z" fill="white"/>
</g>
</svg>
